<?xml version="1.0" encoding="UTF-8" standalone="no"?>
<svg
   width="16"
   height="16"
   fill="currentColor"
   class="bi bi-code"
   viewBox="0 0 16 16"
   version="1.1"
   id="svg4"
   sodipodi:docname="code.svg"
   inkscape:version="1.1.2 (b8e25be833, 2022-02-05)"
   xmlns:inkscape="http://www.inkscape.org/namespaces/inkscape"
   xmlns:sodipodi="http://sodipodi.sourceforge.net/DTD/sodipodi-0.dtd"
   xmlns="http://www.w3.org/2000/svg"
   xmlns:svg="http://www.w3.org/2000/svg">
  <defs
     id="defs8" />
  <sodipodi:namedview
     id="namedview6"
     pagecolor="#ffffff"
     bordercolor="#999999"
     borderopacity="1"
     inkscape:pageshadow="0"
     inkscape:pageopacity="0"
     inkscape:pagecheckerboard="0"
     showgrid="false"
     inkscape:zoom="50.5"
     inkscape:cx="7.990099"
     inkscape:cy="8.009901"
     inkscape:window-width="1920"
     inkscape:window-height="1001"
     inkscape:window-x="-9"
     inkscape:window-y="-9"
     inkscape:window-maximized="1"
     inkscape:current-layer="svg4" />
  <path
     d="M5.854 4.854a.5.5 0 1 0-.708-.708l-3.5 3.5a.5.5 0 0 0 0 .708l3.5 3.5a.5.5 0 0 0 .708-.708L2.707 8l3.147-3.146zm4.292 0a.5.5 0 0 1 .708-.708l3.5 3.5a.5.5 0 0 1 0 .708l-3.5 3.5a.5.5 0 0 1-.708-.708L13.293 8l-3.147-3.146z"
     id="path2"
     style="fill:#f2285f;fill-opacity:1" />
</svg>
