<?xml version="1.0" encoding="UTF-8" standalone="no"?>
<svg
   width="16"
   height="16"
   fill="currentColor"
   class="bi bi-download"
   viewBox="0 0 16 16"
   version="1.1"
   id="svg6"
   sodipodi:docname="download.svg"
   inkscape:version="1.1.2 (b8e25be833, 2022-02-05)"
   xmlns:inkscape="http://www.inkscape.org/namespaces/inkscape"
   xmlns:sodipodi="http://sodipodi.sourceforge.net/DTD/sodipodi-0.dtd"
   xmlns="http://www.w3.org/2000/svg"
   xmlns:svg="http://www.w3.org/2000/svg">
  <defs
     id="defs10" />
  <sodipodi:namedview
     id="namedview8"
     pagecolor="#ffffff"
     bordercolor="#999999"
     borderopacity="1"
     inkscape:pageshadow="0"
     inkscape:pageopacity="0"
     inkscape:pagecheckerboard="0"
     showgrid="false"
     inkscape:zoom="17.854446"
     inkscape:cx="22.599413"
     inkscape:cy="7.589146"
     inkscape:window-width="1920"
     inkscape:window-height="1001"
     inkscape:window-x="-9"
     inkscape:window-y="-9"
     inkscape:window-maximized="1"
     inkscape:current-layer="svg6" />
  <path
     d="M.5 9.9a.5.5 0 0 1 .5.5v2.5a1 1 0 0 0 1 1h12a1 1 0 0 0 1-1v-2.5a.5.5 0 0 1 1 0v2.5a2 2 0 0 1-2 2H2a2 2 0 0 1-2-2v-2.5a.5.5 0 0 1 .5-.5z"
     id="path2"
     style="fill:#f2265d;fill-opacity:1"
     inkscape:export-filename="C:\xampp\htdocs\seguridadInformatica\public\img\svg\path2.png"
     inkscape:export-xdpi="96"
     inkscape:export-ydpi="96" />
  <path
     d="M7.646 11.854a.5.5 0 0 0 .708 0l3-3a.5.5 0 0 0-.708-.708L8.5 10.293V1.5a.5.5 0 0 0-1 0v8.793L5.354 8.146a.5.5 0 1 0-.708.708l3 3z"
     id="path4"
     style="fill:#f2265d;fill-opacity:1"
     inkscape:export-filename="C:\xampp\htdocs\seguridadInformatica\public\img\svg\path2.png"
     inkscape:export-xdpi="96"
     inkscape:export-ydpi="96" />
</svg>
